# xmcd CD database file
#
# Track frame offsets:
#	150
#	20042
#	40671
#	60576
#	78135
#	100860
#	120519
#	141836
#	163896
#	183580
#	201390
#	221392
#	240374
#	259118
#	276215
#	292262
#	310176
#	326506
#
# Disc length: 4578 seconds
#
# Revision: 7
# Processed by: cddbd v1.5.1PL0 Copyright (c) Steve Scherf et al.
# Submitted via: CDex 1.51
#
DISCID=0711e012
DTITLE=Mariah Carey - #1's
DYEAR=1999
DGENRE=R&B
TTITLE0=Sweetheart
TTITLE1=When You Believe
TTITLE2=Whenever You Call
TTITLE3=My All
TTITLE4=Honey
TTITLE5=Always Be My Baby
TTITLE6=One Sweet Day
TTITLE7=Fantasy
TTITLE8=Hero
TTITLE9=Dreamlover
TTITLE10=I'll Be There
TTITLE11=Emotions
TTITLE12=Someday
TTITLE13=Love Takes Time
TTITLE14=Vision Of Love
TTITLE15=I Still Believe
TTITLE16=Without You
TTITLE17=Do You Know Where You're Going To
EXTD=YEAR: 1999
EXTT0=
EXTT1=
EXTT2=
EXTT3=
EXTT4=
EXTT5=
EXTT6=
EXTT7=
EXTT8=
EXTT9=
EXTT10=
EXTT11=
EXTT12=
EXTT13=
EXTT14=
EXTT15=
EXTT16=
EXTT17=
PLAYORDER=
